<svg width="58" height="58" viewBox="0 0 58 58" fill="none" xmlns="http://www.w3.org/2000/svg">
<rect width="58" height="58" rx="29" fill="#EEEEEE"/>
<g clip-path="url(#clip0)">
<path d="M41.2978 28.2969C40.9094 28.2969 40.5946 28.6117 40.5946 29C40.5946 34.8414 35.8423 39.5937 30.0009 39.5937C24.1596 39.5937 19.4073 34.8414 19.4073 29C19.4073 23.1586 24.1596 18.4063 30.0009 18.4063C31.7821 18.4063 33.5148 18.8485 35.0615 19.6913L34.1825 20.5703C33.9814 20.7714 33.9212 21.0738 34.03 21.3366C34.1389 21.5993 34.3952 21.7706 34.6796 21.7706H38.0439C38.4323 21.7706 38.7471 21.4558 38.7471 21.0675V17.7032C38.7471 17.4188 38.5758 17.1624 38.313 17.0536C38.0502 16.9447 37.7478 17.0049 37.5467 17.206L36.0928 18.6599C34.2512 17.5726 32.1573 17.0001 30.0009 17.0001C26.7956 17.0001 23.7821 18.2483 21.5156 20.5148C19.2492 22.7813 18.001 25.7947 18.001 29C18.001 32.2053 19.2492 35.2188 21.5156 37.4852C23.7822 39.7518 26.7956 41 30.0009 41C33.2062 41 36.2196 39.7518 38.4861 37.4852C40.7526 35.2188 42.0008 32.2053 42.0008 29C42.0009 28.6117 41.6861 28.2969 41.2978 28.2969Z" fill="black"/>
<path d="M34.5187 28.297H30.7031V24.4814C30.7031 24.0931 30.3883 23.7783 30 23.7783C29.6117 23.7783 29.2969 24.0931 29.2969 24.4814V29.0002C29.2969 29.3885 29.6117 29.7033 30 29.7033H34.5187C34.907 29.7033 35.2218 29.3885 35.2218 29.0002C35.2218 28.6119 34.907 28.297 34.5187 28.297Z" fill="black"/>
</g>
<defs>
<clipPath id="clip0">
<rect x="18" y="17" width="24" height="24" fill="white"/>
</clipPath>
</defs>
</svg>
