<svg width="58" height="58" viewBox="0 0 58 58" fill="none" xmlns="http://www.w3.org/2000/svg">
<rect width="58" height="58" rx="29" fill="#EEEEEE"/>
<path d="M37.8979 32.8653C37.3288 31.6788 35.2927 30.0318 33.3256 28.4404C32.2284 27.5535 31.1917 26.7149 30.5307 26.054C30.3652 25.8872 30.1175 25.834 29.8988 25.9126C29.4916 26.06 29.2402 26.1736 29.0421 26.2618C28.74 26.3971 28.6385 26.443 28.2313 26.4841C28.0512 26.5022 27.8894 26.5989 27.7891 26.7487C26.9347 28.0259 26.0502 27.9171 25.4594 27.719C25.2709 27.6562 25.2371 27.5752 25.2189 27.4979C25.0921 26.9675 25.7289 25.7325 26.5541 24.9072C28.5177 22.9425 29.5302 22.4506 31.669 23.4065C34.0953 24.4915 36.5265 25.341 36.5507 25.3495C36.8685 25.4594 37.2104 25.2926 37.3204 24.9773C37.4291 24.6619 37.2636 24.3175 36.9482 24.2076C36.924 24.1991 34.5412 23.3666 32.1632 22.302C29.3925 21.0635 27.8724 21.8791 25.701 24.0517C24.8745 24.8782 23.7519 26.5505 24.0419 27.777C24.1664 28.299 24.5337 28.6857 25.0799 28.8657C26.4489 29.3176 27.6983 28.885 28.6287 27.6501C29.013 27.591 29.2221 27.504 29.5362 27.3626C29.6498 27.3118 29.7827 27.2526 29.9591 27.1813C30.6503 27.8302 31.5831 28.5854 32.5655 29.3793C34.3418 30.816 36.3561 32.4448 36.8092 33.3873C37.0327 33.8525 36.7922 34.1558 36.6291 34.2948C36.3899 34.5002 36.0624 34.5654 35.8848 34.441C35.6891 34.3068 35.4341 34.2984 35.2323 34.4192C35.0293 34.54 34.9157 34.7684 34.9411 35.0028C34.9822 35.3871 34.6306 35.607 34.4783 35.6831C34.0916 35.8789 33.6881 35.8451 33.537 35.7049C33.3678 35.5478 33.1249 35.5019 32.9099 35.5816C32.6948 35.6626 32.5449 35.8608 32.5232 36.0903C32.4869 36.4866 32.1933 36.8673 31.8103 37.0159C31.6254 37.086 31.3571 37.1283 31.1167 36.9083C30.9669 36.773 30.759 36.721 30.5645 36.7681C30.3676 36.8165 30.2092 36.9591 30.1404 37.1488C30.1174 37.2092 30.0654 37.3542 29.4999 37.3542C29.0976 37.3542 28.3738 37.0823 28.0197 36.8479C27.5956 36.5688 24.9361 34.5847 22.6391 32.661C22.3164 32.3891 21.7582 31.8067 21.2652 31.292C20.8277 30.8352 20.4278 30.4208 20.2224 30.2468C19.965 30.0293 19.5844 30.0619 19.3705 30.3181C19.1554 30.573 19.1868 30.9549 19.4418 31.17C19.6291 31.3283 19.9916 31.7113 20.3916 32.1281C20.9305 32.6912 21.4875 33.2736 21.8621 33.5878C24.1121 35.4716 26.8163 37.5053 27.3552 37.8593C27.7999 38.1517 28.7581 38.5625 29.5 38.5625C30.0957 38.5625 30.5537 38.426 30.8714 38.159C31.2968 38.3245 31.7801 38.3257 32.2453 38.1445C32.7951 37.9318 33.247 37.5028 33.5032 36.9833C33.9792 37.0848 34.5242 37.0135 35.0196 36.7646C35.5042 36.5205 35.8546 36.1471 36.0286 35.7109C36.5095 35.7363 37.0049 35.5659 37.4145 35.2143C38.1082 34.621 38.2991 33.6979 37.8979 32.8653Z" fill="black"/>
<path d="M27.0833 22.854H21.6458C21.3123 22.854 21.0416 23.1247 21.0416 23.4582C21.0416 23.7917 21.3123 24.0624 21.6458 24.0624H27.0833C27.4168 24.0624 27.6875 23.7917 27.6875 23.4582C27.6875 23.1247 27.4168 22.854 27.0833 22.854Z" fill="black"/>
<path d="M39.6681 31.5792C39.4808 31.3025 39.1062 31.2263 38.8295 31.4148L37.063 32.6014C36.7863 32.7875 36.7125 33.1633 36.8987 33.44C37.0158 33.6128 37.2068 33.707 37.4013 33.707C37.5162 33.707 37.6333 33.6744 37.7373 33.6043L39.5038 32.4178C39.7805 32.2317 39.8542 31.8559 39.6681 31.5792Z" fill="black"/>
<path d="M35.9174 34.4625C35.4849 34.1218 33.5503 32.1414 32.354 30.8944C32.1232 30.6527 31.7402 30.6442 31.4997 30.8762C31.258 31.107 31.2508 31.49 31.4816 31.7305C31.7922 32.0544 34.5314 34.9097 35.1682 35.4124C35.2782 35.4994 35.4111 35.5417 35.5416 35.5417C35.7192 35.5417 35.8969 35.4619 36.0177 35.3109C36.2244 35.0498 36.1797 34.6692 35.9174 34.4625Z" fill="black"/>
<path d="M33.5032 35.6744C32.7794 35.0955 30.9609 33.1634 30.55 32.7164C30.3228 32.4699 29.9422 32.4554 29.6957 32.6801C29.4504 32.906 29.4335 33.2891 29.6595 33.5344C29.6812 33.5574 31.8514 35.9004 32.748 36.6181C32.8591 36.7063 32.9933 36.7498 33.125 36.7498C33.3014 36.7498 33.4778 36.6712 33.5974 36.5239C33.8053 36.2628 33.763 35.8822 33.5032 35.6744Z" fill="black"/>
<path d="M31.0987 36.8914C30.2371 36.1652 28.4742 34.2886 28.1298 33.92C27.9014 33.676 27.5184 33.6627 27.2755 33.891C27.0314 34.1194 27.0193 34.5012 27.2465 34.7454C27.7419 35.2758 29.4287 37.0642 30.3193 37.8157C30.4329 37.9112 30.5706 37.9583 30.7084 37.9583C30.8799 37.9583 31.0515 37.8846 31.1712 37.7432C31.3862 37.4871 31.3536 37.1064 31.0987 36.8914Z" fill="black"/>
<path d="M22.0615 21.8115C21.0259 20.8303 16.885 20.5125 15.6404 20.4388C15.4689 20.4304 15.3106 20.4871 15.1897 20.6019C15.0689 20.7155 15 20.875 15 21.0417V31.9168C15 32.2503 15.2707 32.5209 15.6042 32.5209H19.2292C19.4902 32.5209 19.7222 32.353 19.8031 32.1041C19.8913 31.8334 21.9733 25.4437 22.2476 22.3021C22.2633 22.1184 22.1956 21.9371 22.0615 21.8115ZM18.7881 31.3126H16.2083V21.6894C18.1501 21.8429 20.2454 22.1764 21.0066 22.5461C20.6864 25.1924 19.2376 29.894 18.7881 31.3126Z" fill="black"/>
<path d="M43.3958 21.6455C38.6519 21.6455 36.0201 22.8599 35.9102 22.9106C35.7531 22.9843 35.6359 23.1209 35.5876 23.2864C35.5392 23.452 35.5634 23.6296 35.654 23.777C36.4008 24.9793 38.7389 31.6566 39.1884 33.2854C39.2609 33.5476 39.4989 33.7288 39.7708 33.7288H43.3958C43.7293 33.7288 44 33.4581 44 33.1246V22.2496C44 21.9149 43.7293 21.6455 43.3958 21.6455ZM42.7917 32.5205H40.2227C39.65 30.6548 37.9583 25.7901 37.0146 23.7794C37.9366 23.4665 39.9171 22.9288 42.7917 22.8611V32.5205Z" fill="black"/>
</svg>
